<svg xmlns="http://www.w3.org/2000/svg" width="512" height="512" viewBox="0 0 512 512" version="1.1">
  <path d="M 241 129.586 C 183.650 136.091, 138.091 181.650, 131.586 239 C 127.530 276.146, 139.398 312.739, 164.586 340.500 C 189.775 368.261, 225.146 382.530, 262 378.414 C 319.350 371.909, 364.909 326.350, 371.414 269 C 375.470 231.854, 363.602 195.261, 338.414 167.500 C 313.225 139.739, 277.854 125.470, 241 129.586 M 244.500 166.574 C 208.790 171.148, 180.148 199.790, 175.574 235.500 C 172.882 257.334, 179.666 279.334, 194.500 295.500 C 209.334 311.666, 231.334 318.450, 253.168 315.758 C 288.878 311.184, 317.520 282.542, 322.094 246.832 C 324.786 224.998, 318.002 202.998, 303.168 186.832 C 288.334 170.666, 266.334 163.882, 244.500 166.574" stroke="none" fill="#000000" fill-rule="evenodd"/>
</svg>